<svg width="114" height="32" viewBox="0 0 114 32" fill="none" xmlns="http://www.w3.org/2000/svg">
<path d="M8.34178 1.95606C12.9858 0.931079 18.0391 2.22286 21.6514 5.83141C27.2779 11.452 27.2779 20.5648 21.6514 26.1854C18.0391 29.7939 12.9858 31.0857 8.34178 30.0607C14.4141 33.3628 22.1741 32.4479 27.3112 27.3162C33.5629 21.0711 33.5629 10.9457 27.3112 4.70063C22.1741 -0.431147 14.4141 -1.346 8.34178 1.95606Z" fill="#3A3985"/>
<path d="M23.6582 30.0439C19.0142 31.0689 13.9609 29.7771 10.3486 26.1686C4.72208 20.548 4.72207 11.4352 10.3486 5.81461C13.9609 2.20607 19.0142 0.914283 23.6582 1.93926C17.5859 -1.3628 9.82592 -0.447944 4.68875 4.68383C-1.56292 10.9289 -1.56292 21.0543 4.68875 27.2994C9.82592 32.4311 17.5859 33.346 23.6582 30.0439Z" fill="#3499FF"/>
<path d="M27.5396 27.0836L23.8394 23.3872C23.2426 24.3834 22.5147 25.323 21.6556 26.1812C18.0433 29.7897 12.99 31.0815 8.34598 30.0565C14.4183 33.3586 22.1783 32.4437 27.3155 27.312C27.3911 27.2364 27.4658 27.1603 27.5396 27.0836Z" fill="#3A3985"/>
<path d="M19.8552 11.9008L18.0492 15.0106C18.0176 15.063 18.0176 15.1154 18.0492 15.1676C18.0806 15.2096 18.1222 15.2304 18.1748 15.2304H19.18C19.2638 15.2304 19.3342 15.2618 19.392 15.3246C19.4494 15.3874 19.4784 15.4608 19.4784 15.5446V16.6596C19.4784 16.7436 19.4496 16.8142 19.392 16.8718C19.3342 16.9294 19.2638 16.958 19.18 16.958H17.154C17.07 16.958 17.002 16.9894 16.9498 17.0522C16.8868 17.115 16.8556 17.1886 16.8556 17.2722V17.335C16.8556 17.4188 16.887 17.4896 16.9498 17.547C17.0126 17.6046 17.0856 17.6334 17.1696 17.6334H19.1798C19.2636 17.6334 19.334 17.6622 19.3918 17.7198C19.4492 17.7776 19.4782 17.8482 19.4782 17.932V19.0628C19.4782 19.1468 19.4494 19.2174 19.3918 19.2748C19.334 19.3324 19.2636 19.3612 19.1798 19.3612H17.1696C17.0856 19.3612 17.0124 19.3902 16.9498 19.4476C16.8868 19.5052 16.8556 19.5758 16.8556 19.6596V20.8216C16.8556 20.9056 16.8266 20.9762 16.7694 21.0336C16.7116 21.0912 16.6408 21.12 16.5572 21.12H15.442C15.358 21.12 15.285 21.0912 15.2222 21.0336C15.1594 20.9762 15.1278 20.9054 15.1278 20.8216V19.6596C15.1278 19.4608 15.0282 19.3612 14.8294 19.3612H12.819C12.735 19.3612 12.6644 19.3324 12.607 19.2748C12.5492 19.2174 12.5206 19.1466 12.5206 19.0628V17.932C12.5206 17.7332 12.62 17.6336 12.819 17.6336H14.8294C14.913 17.6336 14.9838 17.6048 15.0414 17.5472C15.0988 17.4898 15.1278 17.419 15.1278 17.3352V17.2566C15.1278 17.173 15.0988 17.1024 15.0414 17.0448C14.9838 16.9874 14.913 16.9584 14.8294 16.9584H12.819C12.62 16.9584 12.5206 16.8592 12.5206 16.66V15.545C12.5206 15.4614 12.5494 15.388 12.607 15.325C12.6644 15.2622 12.735 15.2308 12.819 15.2308H13.8242C13.8764 15.2308 13.9184 15.21 13.9498 15.168C13.9812 15.1156 13.9812 15.0634 13.9498 15.011L12.1594 11.9012C12.0546 11.7232 12.0912 11.582 12.2694 11.4772L13.243 10.9276C13.2954 10.8962 13.3476 10.8804 13.4 10.8804C13.4522 10.8804 13.502 10.8936 13.5492 10.9196C13.5964 10.9458 13.6302 10.9852 13.6512 11.0374L15.74 14.6496C15.7922 14.7544 15.8814 14.8066 16.007 14.8066C16.1222 14.8066 16.2058 14.7542 16.2584 14.6496L18.3472 11.0374C18.41 10.9328 18.4936 10.8804 18.5984 10.8804C18.6716 10.8804 18.7294 10.896 18.7712 10.9276L19.745 11.4772C19.9022 11.5816 19.9388 11.7228 19.8552 11.9008Z" fill="#3A3985"/>
<path d="M52.886 28.3079C51.05 28.3079 49.3387 28.0132 47.752 27.4239C46.188 26.8119 44.828 25.9506 43.672 24.8399C42.516 23.7292 41.6093 22.4259 40.952 20.9299C40.3173 19.4339 40 17.7906 40 15.9999C40 14.2092 40.3173 12.5659 40.952 11.0699C41.6093 9.57389 42.516 8.27056 43.672 7.15989C44.8507 6.04923 46.222 5.19923 47.786 4.60989C49.35 3.99789 51.0613 3.69189 52.92 3.69189C54.9827 3.69189 56.8413 4.05456 58.496 4.77989C60.1733 5.48256 61.5787 6.52523 62.712 7.9079L59.176 11.1719C58.36 10.2426 57.4533 9.55123 56.456 9.09789C55.4587 8.62189 54.3707 8.38389 53.192 8.38389C52.0813 8.38389 51.0613 8.56523 50.132 8.92789C49.2027 9.29056 48.398 9.81189 47.718 10.4919C47.038 11.1719 46.5053 11.9766 46.12 12.9059C45.7573 13.8352 45.576 14.8666 45.576 15.9999C45.576 17.1332 45.7573 18.1646 46.12 19.0939C46.5053 20.0232 47.038 20.8279 47.718 21.5079C48.398 22.1879 49.2027 22.7092 50.132 23.0719C51.0613 23.4346 52.0813 23.6159 53.192 23.6159C54.3707 23.6159 55.4587 23.3892 56.456 22.9359C57.4533 22.4599 58.36 21.7459 59.176 20.7939L62.712 24.0579C61.5787 25.4406 60.1733 26.4946 58.496 27.2199C56.8413 27.9452 54.9713 28.3079 52.886 28.3079Z" fill="url(#paint0_linear_873_36380)"/>
<path d="M66.6015 27.8999V4.09989H76.9035C79.0342 4.09989 80.8702 4.45123 82.4115 5.15389C83.9529 5.83389 85.1429 6.81989 85.9815 8.11189C86.8202 9.40389 87.2395 10.9452 87.2395 12.7359C87.2395 14.5039 86.8202 16.0339 85.9815 17.3259C85.1429 18.6179 83.9529 19.6152 82.4115 20.3179C80.8702 20.9979 79.0342 21.3379 76.9035 21.3379H69.6615L72.1095 18.8559V27.8999H66.6015ZM72.1095 19.4679L69.6615 16.8499H76.5975C78.2975 16.8499 79.5669 16.4872 80.4055 15.7619C81.2442 15.0366 81.6635 14.0279 81.6635 12.7359C81.6635 11.4212 81.2442 10.4012 80.4055 9.67589C79.5669 8.95056 78.2975 8.58789 76.5975 8.58789H69.6615L72.1095 5.96989V19.4679Z" fill="url(#paint1_linear_873_36380)"/>
<path d="M87.0185 27.8999L97.6265 4.09989H103.067L113.709 27.8999H107.929L99.2245 6.88789H101.401L92.6625 27.8999H87.0185ZM92.3225 22.7999L93.7845 18.6179H106.025L107.521 22.7999H92.3225Z" fill="url(#paint2_linear_873_36380)"/>
<defs>
<linearGradient id="paint0_linear_873_36380" x1="76.174" y1="-12.8092" x2="76.174" y2="63.272" gradientUnits="userSpaceOnUse">
<stop offset="0.175728" stop-color="#3499FF"/>
<stop offset="0.771358" stop-color="#343985"/>
</linearGradient>
<linearGradient id="paint1_linear_873_36380" x1="76.174" y1="-12.8092" x2="76.174" y2="63.272" gradientUnits="userSpaceOnUse">
<stop offset="0.175728" stop-color="#3499FF"/>
<stop offset="0.771358" stop-color="#343985"/>
</linearGradient>
<linearGradient id="paint2_linear_873_36380" x1="76.174" y1="-12.8092" x2="76.174" y2="63.272" gradientUnits="userSpaceOnUse">
<stop offset="0.175728" stop-color="#3499FF"/>
<stop offset="0.771358" stop-color="#343985"/>
</linearGradient>
</defs>
</svg>
